<mxfile host="app.diagrams.net" modified="2024-09-03T18:55:40.944Z" agent="Mozilla/5.0 (Macintosh; Intel Mac OS X 10_15_7) AppleWebKit/537.36 (KHTML, like Gecko) Chrome/128.0.0.0 Safari/537.36" version="24.4.0" etag="KFUeknKHMi_IiiRdKtc3" type="github">
  <diagram name="Page-1" id="3857DtJ8CvxtIQMWb26S">
    <mxGraphModel>
      <root>
        <mxCell id="0" />
        <mxCell id="1" parent="0" />
      </root>
    </mxGraphModel>
  </diagram>
</mxfile>
